<svg width="512" height="512" xmlns="http://www.w3.org/2000/svg">
 <g>
  <title>Layer 1</title>
  <circle id="svg_1" fill="#3aafa9" r="256" cy="256" cx="256"/>
  <path id="svg_2" fill="#2b7a78" d="m155.16,384.73801l126.02798,126.03c127.82901,-12.48599 228.08704,-118.98199 230.74301,-249.45401l-178.54001,-178.463l-134.28001,12.659l-43.95097,289.228z"/>
  <path id="svg_3" fill="#515151" d="m292.345,276.68701l-72.69,0c-30.577,0 -55.453,-24.87601 -55.453,-55.453l0,-101.13501c0,-30.577 24.87601,-55.453 55.453,-55.453l72.69,0c30.577,0 55.453,24.876 55.453,55.453l0,101.13499c0,30.57701 -24.87601,55.45302 -55.453,55.45302zm-72.69,-170.66702c-7.763,0 -14.07899,6.316 -14.07899,14.079l0,101.13499c0,7.763 6.31599,14.07901 14.07899,14.07901l72.69,0c7.763,0 14.07901,-6.31601 14.07901,-14.07901l0,-101.13499c0,-7.763 -6.31601,-14.079 -14.07901,-14.079l-72.69,0z"/>
  <g id="svg_4">
   <path id="svg_5" fill="#333333" d="m292.345,64.646l-36.91901,0l0,41.37399l36.91901,0c7.763,0 14.07901,6.316 14.07901,14.079l0,101.135c0,7.763 -6.31601,14.07899 -14.07901,14.07899l-36.91901,0l0,41.37402l36.91901,0c30.577,0 55.453,-24.87604 55.453,-55.45302l0,-101.13501c0,-30.577 -24.87601,-55.453 -55.453,-55.453l0,0.00002l0,-0.00001z"/>
   <circle id="svg_6" fill="#333333" r="142.222" cy="284.444" cx="256"/>
  </g>
  <path id="svg_7" fill="#1E1E1E" d="m257,142.222c-0.19299,0 -0.38098,0.01399 -0.57401,0.01399l0,284.41501c0.19302,0 0.38101,0.01401 0.57401,0.01401c78.54599,0 142.22198,-63.67599 142.22198,-142.22198s-63.67599,-142.22102 -142.22198,-142.22102z"/>
  <circle id="svg_8" fill="#515151" r="56.889" cy="284.444" cx="256"/>
  <path id="svg_9" fill="#333333" d="m256,227.556c31.418,0 56.88901,25.47099 56.88901,56.88901s-25.47101,56.888 -56.88901,56.888l0,-113.77701z"/>
  <g id="svg_10"/>
  <g id="svg_11"/>
  <g id="svg_12"/>
  <g id="svg_13"/>
  <g id="svg_14"/>
  <g id="svg_15"/>
  <g id="svg_16"/>
  <g id="svg_17"/>
  <g id="svg_18"/>
  <g id="svg_19"/>
  <g id="svg_20"/>
  <g id="svg_21"/>
  <g id="svg_22"/>
  <g id="svg_23"/>
  <g id="svg_24"/>
 </g>

</svg>